{"title":"BBC Proms 2012 - 57. Wagner, Berg, R. Strauss and Ravel","uid":7601813,"size":1229270857,"categoryP":"video","categoryS":"music_videos","magnet":"?xt=urn:btih:f08b8f13653d59cbbdda4b4cd3fcc4529d53ab6a&amp;dn=BBC+Proms+2012+-+57.+Wagner%2C+Berg%2C+R.+Strauss+and+Ravel&amp;tr=udp%3A%2F%2Ftracker.openbittorrent.com%3A80&amp;tr=udp%3A%2F%2Fopen.demonii.com%3A1337&amp;tr=udp%3A%2F%2Ftracker.coppersurfer.tk%3A6969&amp;tr=udp%3A%2F%2Fexodus.desync.com%3A6969","seeders":0,"leechers":0,"uploader":"deandominic","files":2,"time":1346850513,"description":"BBC Proms 2012 - 57. Wagner, Berg, R. Strauss and Ravel\n\nWagner - Parsifal - Prelude (Act 3) and Good Friday Music (20 mins)\nBerg - Violin Concerto (25 mins)\nJ. S. Bach - Sonata for Solo Violin No. 2 in A minor, BWV 1003 (3 mins)\nR. Strauss - Der Rosenkavalier - suite (22 mins)\nRavel - La valse (12 mins)\nWagner - The Mastersingers of Nuremberg - Prelude (Act 3) (5 mins)\n\nGustav Mahler Jugendorchester\nDaniele Gatti conductor\nFrank Peter Zimmermann violin\n\nOne of the great youth orchestras is back, and in distinguished company. Daniele Gatti begins with the weighty tread and unmatched radiance of music he has been exploring at Bayreuth. Frank Peter Zimmermann plays one of the 20th century's most eloquent violin concertos.\n\nStrauss conjures up a bittersweet Vienna of young love, mid-life melancholy and abundant waltz tunes, while Ravel's apotheosis of that dance form may or may not have been intended as a metaphor for the fate of European civilisation as its unstoppable whirling reaches critical mass.\n\nVideo\nID                                       : 1\nFormat                                   : AVC\nFormat/Info                              : Advanced Video Codec\nFormat profile                           : &lt;a class=&quot;__cf_email__&quot; href=&quot;/cdn-cgi/l/email-protection&quot; data-cfemail=&quot;d19cb0b8bf919de2ffe1&quot;&gt;[email&amp;#160;protected]&lt;/a&gt;&lt;script data-cfhash='f9e31' type=&quot;text/javascript&quot;&gt;\n/* &lt;![CDATA[ */!function(){try{var t=&quot;currentScript&quot;in document?document.currentScript:function(){for(var t=document.getElementsByTagName(&quot;script&quot;),e=t.length;e--;)if(t[e].getAttribute(&quot;data-cfhash&quot;))return t[e]}();if(t&amp;&amp;t.previousSibling){var e,r,n,i,c=t.previousSibling,a=c.getAttribute(&quot;data-cfemail&quot;);if(a){for(e=&quot;&quot;,r=parseInt(a.substr(0,2),16),n=2;a.length-n;n+=2)i=parseInt(a.substr(n,2),16)^r,e+=String.fromCharCode(i);e=document.createTextNode(e),c.parentNode.replaceChild(e,c)}t.parentNode.removeChild(t);}}catch(u){}}()/* ]]&gt; */&lt;/script&gt;\nFormat settings, CABAC                   : Yes\nFormat settings, ReFrames                : 4 frames\nCodec ID                                 : avc1\nCodec ID/Info                            : Advanced Video Coding\nDuration                                 : 1h 49mn\nBit rate mode                            : Constant\nBit rate                                 : 1 404 Kbps\nWidth                                    : 832 pixels\nHeight                                   : 468 pixels\nDisplay aspect ratio                     : 16:9\nFrame rate mode                          : Constant\nFrame rate                               : 25.000 fps\nStandard                                 : PAL\nColor space                              : YUV\nChroma subsampling                       : 4:2:0\nBit depth                                : 8 bits\nScan type                                : Progressive\nBits/(Pixel*Frame)                       : 0.144\nStream size                              : 1.07 GiB (93%)\n\nAudio\nID                                       : 2\nFormat                                   : AAC\nFormat/Info                              : Advanced Audio Codec\nFormat profile                           : HE-AAC / LC\nCodec ID                                 : 40\nDuration                                 : 1h 49mn\nBit rate mode                            : Constant\nBit rate                                 : 96.0 Kbps\nChannel(s)                               : 2 channels\nChannel positions                        : Front: L R\nSampling rate                            : 48.0 KHz / 24.0 KHz\nCompression mode                         : Lossy\nStream size                              : 73.9 MiB (6%)\n","torrent":{"xt":"urn:btih:f08b8f13653d59cbbdda4b4cd3fcc4529d53ab6a","amp;dn":"BBC+Proms+2012+-+57.+Wagner%2C+Berg%2C+R.+Strauss+and+Ravel","amp;tr":["udp%3A%2F%2Ftracker.openbittorrent.com%3A80","udp%3A%2F%2Fopen.demonii.com%3A1337","udp%3A%2F%2Ftracker.coppersurfer.tk%3A6969","udp%3A%2F%2Fexodus.desync.com%3A6969"],"infoHash":"f08b8f13653d59cbbdda4b4cd3fcc4529d53ab6a","infoHashBuffer":{"type":"Buffer","data":[240,139,143,19,101,61,89,203,189,218,75,76,211,252,196,82,157,83,171,106]},"announce":[],"urlList":[]}}